<svg width="221" height="45" viewBox="0 0 221 45" fill="none" xmlns="http://www.w3.org/2000/svg">
<g clip-path="url(#clip0_1_238)">
<g clip-path="url(#clip1_1_238)">
<g clip-path="url(#clip2_1_238)">
<path d="M159.033 22.2063H152.935C152.716 22.2063 152.527 22.1265 152.368 21.9667C152.208 21.807 152.128 21.6173 152.128 21.3976V2.04861C152.128 1.82896 152.208 1.63926 152.368 1.47952C152.527 1.31977 152.716 1.2399 152.935 1.2399H159.033C159.252 1.2399 159.441 1.31977 159.601 1.47952C159.76 1.63926 159.84 1.82896 159.84 2.04861V21.3976C159.84 21.6173 159.76 21.807 159.601 21.9667C159.441 22.1265 159.252 22.2063 159.033 22.2063Z" fill="url(#paint0_linear_1_238)"/>
<path d="M137.597 1.2399H144.083C144.8 1.2399 145.249 1.56937 145.428 2.22832L152.094 21.3377C152.114 21.3976 152.123 21.4975 152.123 21.6372C152.123 21.757 152.054 21.8868 151.914 22.0266C151.795 22.1464 151.645 22.2063 151.466 22.2063H145.936C145.339 22.2063 144.95 21.9567 144.771 21.4575L144.053 19.4807H137.627L136.91 21.4575C136.73 21.9567 136.342 22.2063 135.744 22.2063H130.214C130.035 22.2063 129.875 22.1464 129.736 22.0266C129.616 21.8868 129.557 21.757 129.557 21.6372C129.557 21.4975 129.567 21.3976 129.587 21.3377L136.252 2.22832C136.431 1.56937 136.88 1.2399 137.597 1.2399Z" fill="url(#paint1_linear_1_238)"/>
<path d="M124.229 21.2179C124.289 21.3377 124.319 21.4675 124.319 21.6073C124.319 21.7471 124.249 21.8868 124.11 22.0266C123.99 22.1464 123.84 22.2063 123.661 22.2063H117.534C116.916 22.2063 116.488 21.9368 116.248 21.3976L113.678 15.6768H112.452V21.3976C112.452 21.6173 112.373 21.807 112.213 21.9667C112.054 22.1265 111.865 22.2063 111.645 22.2063H105.787C105.568 22.2063 105.379 22.1265 105.219 21.9667C105.06 21.807 104.98 21.6173 104.98 21.3976V2.04861C104.98 1.82896 105.06 1.63926 105.219 1.47952C105.379 1.31977 105.568 1.2399 105.787 1.2399H114.634C117.504 1.2399 119.746 1.88886 121.36 3.18678C122.974 4.46474 123.781 6.31178 123.781 8.72791C123.781 11.1241 122.705 13.0111 120.553 14.3888L124.229 21.2179ZM112.452 6.81098V9.9859H114.634C115.073 9.9859 115.412 9.84612 115.651 9.56657C115.89 9.26705 116.009 8.89764 116.009 8.45834C116.009 8.01905 115.89 7.63965 115.651 7.32017C115.431 6.98071 115.093 6.81098 114.634 6.81098H112.452Z" fill="url(#paint2_linear_1_238)"/>
<path d="M93.7624 16.3657H102.969C103.188 16.3657 103.377 16.4456 103.536 16.6053C103.696 16.765 103.776 16.9547 103.776 17.1744V21.3976C103.776 21.6173 103.696 21.807 103.536 21.9667C103.377 22.1265 103.188 22.2063 102.969 22.2063H87.3959C87.1767 22.2063 86.9874 22.1265 86.828 21.9667C86.6686 21.807 86.5889 21.6173 86.5889 21.3976V2.04861C86.5889 1.82896 86.6686 1.63926 86.828 1.47952C86.9874 1.31977 87.1767 1.2399 87.3959 1.2399H102.729C102.949 1.2399 103.138 1.31977 103.297 1.47952C103.457 1.63926 103.536 1.82896 103.536 2.04861V6.27185C103.536 6.49149 103.457 6.68119 103.297 6.84093C103.138 7.00068 102.949 7.08055 102.729 7.08055H93.7624V8.96753H102.072C102.291 8.96753 102.48 9.0474 102.64 9.20714C102.799 9.36689 102.879 9.55658 102.879 9.77623V13.67C102.879 13.8896 102.799 14.0793 102.64 14.2391C102.48 14.3988 102.291 14.4787 102.072 14.4787H93.7624V16.3657Z" fill="url(#paint3_linear_1_238)"/>
<path d="M67.077 1.2399H75.6853C78.5946 1.2399 80.9858 1.96874 82.8589 3.4264C84.7519 4.8641 85.6984 6.88087 85.6984 9.47671V13.9396C85.6984 16.6552 84.7818 18.7119 82.9486 20.1097C81.1153 21.5074 78.7042 22.2063 75.7152 22.2063H68.1445C67.9253 22.2063 67.736 22.1265 67.5766 21.9667C67.4172 21.807 67.3375 21.6173 67.3375 21.3976L66.27 2.04861C66.27 1.82896 66.3497 1.63926 66.5091 1.47952C66.6686 1.31977 66.8579 1.2399 67.077 1.2399ZM73.7425 7.08055V16.3657H75.6853C76.3628 16.3657 76.9009 16.166 77.2994 15.7666C77.7178 15.3473 77.9271 14.7383 77.9271 13.9396V9.47671C77.9271 7.87927 77.1798 7.08055 75.6853 7.08055H73.7425Z" fill="url(#paint4_linear_1_238)"/>
<path d="M67.1057 1.2399H72.5158C72.735 1.2399 72.9243 1.31977 73.0837 1.47952C73.2431 1.63926 73.3228 1.82896 73.3228 2.04861V21.3976C73.3228 21.6173 73.2431 21.807 73.0837 21.9667C72.9243 22.1265 72.735 22.2063 72.5158 22.2063H67.7932C67.2751 22.2063 66.8666 21.9767 66.5677 21.5174L61.5163 13.8797V21.3976C61.5163 21.6173 61.4366 21.807 61.2772 21.9667C61.1178 22.1265 60.9285 22.2063 60.7093 22.2063H55.2992C55.08 22.2063 54.8907 22.1265 54.7313 21.9667C54.5719 21.807 54.4922 21.6173 54.4922 21.3976V2.04861C54.4922 1.82896 54.5719 1.63926 54.7313 1.47952C54.8907 1.31977 55.08 1.2399 55.2992 1.2399H60.0218C60.5798 1.2399 60.9883 1.46953 61.2473 1.9288L66.2987 10.2255V2.04861C66.2987 1.82896 66.3784 1.63926 66.5378 1.47952C66.6972 1.31977 66.8865 1.2399 67.1057 1.2399Z" fill="url(#paint5_linear_1_238)"/>
<path d="M46.6368 1.2399H52.4952C52.7144 1.2399 52.9037 1.31977 53.0631 1.47952C53.2225 1.63926 53.3022 1.82896 53.3022 2.04861V14.0893C53.3022 16.8848 52.4354 18.9915 50.7018 20.4092C48.9682 21.807 46.6994 22.2064 43.7105 22.2064C40.7414 22.2064 37.4578 22.5345 35.7042 21.1367C33.9706 19.7389 33.9336 16.9048 33.9336 14.0893V2.04861C33.9336 1.82896 34.0133 1.63926 34.1727 1.47952C34.3321 1.31977 34.5214 1.2399 34.7406 1.2399H40.599C40.8182 1.2399 41.0075 1.31977 41.1669 1.47952C41.3264 1.63926 41.4061 1.82896 41.4061 2.04861V14.1792C41.4061 15.7167 42.1433 16.4855 43.6179 16.4855C45.0925 16.4855 45.8298 15.7167 45.8298 14.1792V2.04861C45.8298 1.82896 45.9095 1.63926 46.0689 1.47952C46.2283 1.31977 46.4176 1.2399 46.6368 1.2399Z" fill="url(#paint6_linear_1_238)"/>
<path d="M33.5455 1.2399H39.4039C39.6231 1.2399 39.8124 1.31977 39.9718 1.47952C40.1312 1.63926 40.2109 1.82896 40.2109 2.04861V21.3976C40.2109 21.6173 40.1312 21.807 39.9718 21.9667C39.8124 22.1265 39.6231 22.2063 39.4039 22.2063H33.5455C33.3263 22.2063 33.137 22.1265 32.9776 21.9667C32.8182 21.807 32.7385 21.6173 32.7385 21.3976V14.928H27.8963V21.3976C27.8963 21.6173 27.8166 21.807 27.6572 21.9667C27.4978 22.1265 27.3085 22.2063 27.0893 22.2063H21.2309C21.0117 22.2063 20.8224 22.1364 20.6629 21.9967C20.5035 21.8369 20.4238 21.6372 20.4238 21.3976V2.04861C20.4238 1.82896 20.5035 1.63926 20.6629 1.47952C20.8224 1.31977 21.0117 1.2399 21.2309 1.2399H27.0893C27.3085 1.2399 27.4978 1.31977 27.6572 1.47952C27.8166 1.63926 27.8963 1.82896 27.8963 2.04861V8.33853H32.7385V2.04861C32.7385 1.82896 32.8182 1.63926 32.9776 1.47952C33.137 1.31977 33.3263 1.2399 33.5455 1.2399Z" fill="url(#paint7_linear_1_238)"/>
<path d="M1.64687 1.2399H19.1623C19.3815 1.2399 19.5708 1.31977 19.7302 1.47952C19.8897 1.63926 19.9694 1.82896 19.9694 2.04861V6.87089C19.9694 7.09053 19.8897 7.28023 19.7302 7.43997C19.5708 7.59972 19.3815 7.67959 19.1623 7.67959H14.2006V21.3976C14.2006 21.6173 14.1209 21.807 13.9615 21.9667C13.8021 22.1265 13.6128 22.2063 13.3936 22.2063H7.41562C7.19642 22.2063 7.00712 22.1265 6.84771 21.9667C6.6883 21.807 6.60859 21.6173 6.60859 21.3976V7.67959H1.64687C1.42768 7.67959 1.23838 7.59972 1.07896 7.43997C0.91955 7.28023 0.839844 7.09053 0.839844 6.87089V2.04861C0.839844 1.82896 0.91955 1.63926 1.07896 1.47952C1.23838 1.31977 1.42768 1.2399 1.64687 1.2399Z" fill="url(#paint8_linear_1_238)"/>
<path d="M141 9.86636C141.242 10.2258 141.518 10.554 141.829 10.84C141.518 11.1258 141.242 11.4535 141 11.8127C140.758 11.4533 140.481 11.1259 140.17 10.84C140.481 10.5539 140.758 10.226 141 9.86636Z" fill="#746BEB" stroke="white" stroke-width="2.70391"/>
</g>
</g>
</g>
<path d="M4.326 28.9H5.152L9.282 38.84H8.246L6.958 35.732H2.492L1.218 38.84H0.168L4.326 28.9ZM6.734 34.962L4.732 30.048L2.702 34.962H6.734ZM10.7069 38.84V28.9H14.0809C15.1356 28.9 16.0129 29.124 16.7129 29.572C17.4223 30.0107 17.9543 30.608 18.3089 31.364C18.6636 32.1107 18.8409 32.9413 18.8409 33.856C18.8409 34.864 18.6449 35.7413 18.2529 36.488C17.8703 37.2347 17.3196 37.8133 16.6009 38.224C15.8916 38.6347 15.0516 38.84 14.0809 38.84H10.7069ZM17.8609 33.856C17.8609 33.0627 17.7116 32.358 17.4129 31.742C17.1236 31.126 16.6989 30.6453 16.1389 30.3C15.5789 29.9453 14.8929 29.768 14.0809 29.768H11.6869V37.972H14.0809C14.9023 37.972 15.5929 37.79 16.1529 37.426C16.7129 37.062 17.1376 36.572 17.4269 35.956C17.7163 35.3307 17.8609 34.6307 17.8609 33.856ZM29.5208 38.84V30.748L25.9228 37.034H25.3068L21.6948 30.748V38.84H20.7148V28.9H21.7228L25.6008 35.704L29.5068 28.9H30.5008V38.84H29.5208ZM32.9921 38.84V28.9H33.9721V38.84H32.9921ZM37.4448 30.706V38.84H36.4648V28.9H37.2767L43.8008 37.188V28.914H44.7808V38.84H43.8708L37.4448 30.706ZM50.8476 38.84V28.9H54.2216C55.2762 28.9 56.1536 29.124 56.8536 29.572C57.5629 30.0107 58.0949 30.608 58.4496 31.364C58.8042 32.1107 58.9816 32.9413 58.9816 33.856C58.9816 34.864 58.7856 35.7413 58.3936 36.488C58.0109 37.2347 57.4602 37.8133 56.7416 38.224C56.0322 38.6347 55.1922 38.84 54.2216 38.84H50.8476ZM58.0016 33.856C58.0016 33.0627 57.8522 32.358 57.5536 31.742C57.2642 31.126 56.8396 30.6453 56.2796 30.3C55.7196 29.9453 55.0336 29.768 54.2216 29.768H51.8276V37.972H54.2216C55.0429 37.972 55.7336 37.79 56.2936 37.426C56.8536 37.062 57.2782 36.572 57.5676 35.956C57.8569 35.3307 58.0016 34.6307 58.0016 33.856ZM63.5799 28.9H64.4059L68.5359 38.84H67.4999L66.2119 35.732H61.7459L60.4719 38.84H59.4219L63.5799 28.9ZM65.9879 34.962L63.9859 30.048L61.9559 34.962H65.9879ZM75.6341 30.762C75.4941 30.6033 75.3308 30.4633 75.1441 30.342C74.9575 30.2113 74.7475 30.0993 74.5141 30.006C74.2808 29.9127 74.0288 29.838 73.7581 29.782C73.4968 29.726 73.2168 29.698 72.9181 29.698C72.0501 29.698 71.4108 29.866 71.0001 30.202C70.5988 30.5287 70.3981 30.9767 70.3981 31.546C70.3981 31.938 70.4915 32.246 70.6781 32.47C70.8741 32.694 71.1775 32.876 71.5881 33.016C71.9988 33.156 72.5215 33.3007 73.1561 33.45C73.8655 33.5993 74.4768 33.7767 74.9901 33.982C75.5035 34.1873 75.9001 34.4673 76.1801 34.822C76.4601 35.1673 76.6001 35.6387 76.6001 36.236C76.6001 36.6933 76.5115 37.09 76.3341 37.426C76.1568 37.762 75.9095 38.042 75.5921 38.266C75.2748 38.49 74.8968 38.658 74.4581 38.77C74.0195 38.8727 73.5388 38.924 73.0161 38.924C72.5028 38.924 72.0081 38.8727 71.5321 38.77C71.0655 38.658 70.6221 38.4993 70.2021 38.294C69.7821 38.0793 69.3901 37.8087 69.0261 37.482L69.5161 36.684C69.6935 36.8707 69.9035 37.048 70.1461 37.216C70.3981 37.3747 70.6735 37.5193 70.9721 37.65C71.2801 37.7807 71.6068 37.8833 71.9521 37.958C72.3068 38.0233 72.6708 38.056 73.0441 38.056C73.8375 38.056 74.4535 37.9113 74.8921 37.622C75.3401 37.3327 75.5641 36.9033 75.5641 36.334C75.5641 35.9233 75.4521 35.5967 75.2281 35.354C75.0041 35.102 74.6681 34.8967 74.2201 34.738C73.7721 34.5793 73.2215 34.4253 72.5681 34.276C71.8775 34.1173 71.2941 33.94 70.8181 33.744C70.3421 33.548 69.9828 33.2913 69.7401 32.974C69.5068 32.6473 69.3901 32.218 69.3901 31.686C69.3901 31.07 69.5395 30.552 69.8381 30.132C70.1461 29.7027 70.5661 29.3807 71.0981 29.166C71.6301 28.942 72.2415 28.83 72.9321 28.83C73.3708 28.83 73.7768 28.8767 74.1501 28.97C74.5328 29.054 74.8828 29.18 75.2001 29.348C75.5268 29.516 75.8301 29.726 76.1101 29.978L75.6341 30.762ZM86.168 28.9V38.84H85.202V34.192H79.308V38.84H78.328V28.9H79.308V33.324H85.202V28.9H86.168ZM96.14 36.278C96.14 36.7727 96.014 37.216 95.762 37.608C95.51 37.9907 95.1693 38.294 94.74 38.518C94.32 38.7327 93.858 38.84 93.354 38.84H88.664V28.9H93.452C93.9186 28.9 94.32 29.026 94.656 29.278C95.0013 29.5207 95.2626 29.838 95.44 30.23C95.6266 30.6127 95.72 31.014 95.72 31.434C95.72 31.9287 95.594 32.386 95.342 32.806C95.09 33.226 94.74 33.5387 94.292 33.744C94.8613 33.912 95.3093 34.2247 95.636 34.682C95.972 35.1393 96.14 35.6713 96.14 36.278ZM95.16 36.11C95.16 35.774 95.0853 35.466 94.936 35.186C94.7866 34.8967 94.5813 34.6633 94.32 34.486C94.068 34.3087 93.7786 34.22 93.452 34.22H89.644V37.986H93.354C93.69 37.986 93.9933 37.8973 94.264 37.72C94.5346 37.5427 94.7493 37.314 94.908 37.034C95.076 36.7447 95.16 36.4367 95.16 36.11ZM89.644 29.754V33.422H93.06C93.3866 33.422 93.676 33.338 93.928 33.17C94.18 32.9927 94.3806 32.764 94.53 32.484C94.6793 32.204 94.754 31.9053 94.754 31.588C94.754 31.252 94.684 30.9487 94.544 30.678C94.404 30.398 94.2126 30.174 93.97 30.006C93.7273 29.838 93.452 29.754 93.144 29.754H89.644ZM101.992 38.91C101.292 38.91 100.658 38.77 100.088 38.49C99.5189 38.21 99.0289 37.832 98.6182 37.356C98.2075 36.8707 97.8902 36.3293 97.6662 35.732C97.4422 35.1253 97.3302 34.5047 97.3302 33.87C97.3302 33.2073 97.4469 32.5773 97.6802 31.98C97.9135 31.3733 98.2402 30.8367 98.6602 30.37C99.0895 29.894 99.5889 29.5207 100.158 29.25C100.728 28.97 101.344 28.83 102.006 28.83C102.706 28.83 103.341 28.9747 103.91 29.264C104.48 29.5533 104.965 29.9407 105.366 30.426C105.777 30.9113 106.094 31.4527 106.318 32.05C106.542 32.6473 106.654 33.2587 106.654 33.884C106.654 34.5467 106.538 35.1813 106.304 35.788C106.071 36.3853 105.744 36.922 105.324 37.398C104.904 37.8647 104.41 38.2333 103.84 38.504C103.271 38.7747 102.655 38.91 101.992 38.91ZM98.3102 33.87C98.3102 34.4113 98.3989 34.934 98.5762 35.438C98.7535 35.9327 99.0055 36.376 99.3322 36.768C99.6589 37.1507 100.046 37.4587 100.494 37.692C100.952 37.916 101.451 38.028 101.992 38.028C102.562 38.028 103.07 37.9113 103.518 37.678C103.976 37.4353 104.363 37.118 104.68 36.726C105.007 36.3247 105.254 35.8767 105.422 35.382C105.59 34.8873 105.674 34.3833 105.674 33.87C105.674 33.3287 105.586 32.8107 105.408 32.316C105.231 31.8213 104.974 31.378 104.638 30.986C104.312 30.594 103.924 30.286 103.476 30.062C103.028 29.838 102.534 29.726 101.992 29.726C101.432 29.726 100.924 29.8427 100.466 30.076C100.018 30.3093 99.6309 30.6267 99.3042 31.028C98.9869 31.42 98.7395 31.8633 98.5622 32.358C98.3942 32.8527 98.3102 33.3567 98.3102 33.87ZM111.213 28.9H112.039L116.169 38.84H115.133L113.845 35.732H109.379L108.105 38.84H107.055L111.213 28.9ZM113.621 34.962L111.619 30.048L109.589 34.962H113.621ZM117.594 38.84V28.9H121.794C122.223 28.9 122.615 28.9887 122.97 29.166C123.324 29.3433 123.632 29.586 123.894 29.894C124.164 30.1927 124.37 30.5287 124.51 30.902C124.659 31.266 124.734 31.6393 124.734 32.022C124.734 32.498 124.64 32.946 124.454 33.366C124.276 33.786 124.02 34.1407 123.684 34.43C123.357 34.7193 122.97 34.9107 122.522 35.004L124.958 38.84H123.852L121.514 35.172H118.574V38.84H117.594ZM118.574 34.304H121.822C122.214 34.304 122.554 34.1967 122.844 33.982C123.133 33.7673 123.357 33.4873 123.516 33.142C123.674 32.7873 123.754 32.414 123.754 32.022C123.754 31.6207 123.66 31.252 123.474 30.916C123.296 30.5707 123.054 30.2953 122.746 30.09C122.447 29.8753 122.111 29.768 121.738 29.768H118.574V34.304ZM126.74 38.84V28.9H130.114C131.169 28.9 132.046 29.124 132.746 29.572C133.455 30.0107 133.987 30.608 134.342 31.364C134.697 32.1107 134.874 32.9413 134.874 33.856C134.874 34.864 134.678 35.7413 134.286 36.488C133.903 37.2347 133.353 37.8133 132.634 38.224C131.925 38.6347 131.085 38.84 130.114 38.84H126.74ZM133.894 33.856C133.894 33.0627 133.745 32.358 133.446 31.742C133.157 31.126 132.732 30.6453 132.172 30.3C131.612 29.9453 130.926 29.768 130.114 29.768H127.72V37.972H130.114C130.935 37.972 131.626 37.79 132.186 37.426C132.746 37.062 133.171 36.572 133.46 35.956C133.749 35.3307 133.894 34.6307 133.894 33.856Z" fill="#6C757D"/>
<defs>
<linearGradient id="paint0_linear_1_238" x1="-16.0684" y1="3.48631" x2="162.211" y2="22.1294" gradientUnits="userSpaceOnUse">
<stop stop-color="#896ED7"/>
<stop offset="1" stop-color="#5E779B"/>
</linearGradient>
<linearGradient id="paint1_linear_1_238" x1="-16.0689" y1="3.48631" x2="162.211" y2="22.1295" gradientUnits="userSpaceOnUse">
<stop stop-color="#896ED7"/>
<stop offset="1" stop-color="#5E779B"/>
</linearGradient>
<linearGradient id="paint2_linear_1_238" x1="-16.0693" y1="3.4863" x2="162.21" y2="22.1295" gradientUnits="userSpaceOnUse">
<stop stop-color="#896ED7"/>
<stop offset="1" stop-color="#5E779B"/>
</linearGradient>
<linearGradient id="paint3_linear_1_238" x1="-16.0688" y1="3.48631" x2="162.211" y2="22.1295" gradientUnits="userSpaceOnUse">
<stop stop-color="#896ED7"/>
<stop offset="1" stop-color="#5E779B"/>
</linearGradient>
<linearGradient id="paint4_linear_1_238" x1="-16.0696" y1="3.48631" x2="162.21" y2="22.1295" gradientUnits="userSpaceOnUse">
<stop stop-color="#896ED7"/>
<stop offset="1" stop-color="#5E779B"/>
</linearGradient>
<linearGradient id="paint5_linear_1_238" x1="-7.52932" y1="3.48631" x2="170.75" y2="22.1295" gradientUnits="userSpaceOnUse">
<stop stop-color="#896ED7"/>
<stop offset="1" stop-color="#5E779B"/>
</linearGradient>
<linearGradient id="paint6_linear_1_238" x1="-7.52927" y1="3.48631" x2="170.751" y2="22.1296" gradientUnits="userSpaceOnUse">
<stop stop-color="#896ED7"/>
<stop offset="1" stop-color="#5E779B"/>
</linearGradient>
<linearGradient id="paint7_linear_1_238" x1="-0.0565417" y1="3.48631" x2="178.223" y2="22.1295" gradientUnits="userSpaceOnUse">
<stop stop-color="#896ED7"/>
<stop offset="1" stop-color="#5E779B"/>
</linearGradient>
<linearGradient id="paint8_linear_1_238" x1="-0.0568525" y1="3.4863" x2="178.223" y2="22.1295" gradientUnits="userSpaceOnUse">
<stop stop-color="#896ED7"/>
<stop offset="1" stop-color="#5E779B"/>
</linearGradient>
<clipPath id="clip0_1_238">
<rect width="160" height="22" fill="white" transform="translate(0 0.839996)"/>
</clipPath>
<clipPath id="clip1_1_238">
<rect width="160" height="22" fill="white" transform="translate(0 0.839996)"/>
</clipPath>
<clipPath id="clip2_1_238">
<rect width="160" height="22" fill="white" transform="translate(0 0.839996)"/>
</clipPath>
</defs>
</svg>
