<svg width="24" height="24" viewBox="0 0 24 24" fill="none" xmlns="http://www.w3.org/2000/svg">
<g clip-path="url(#clip0_1_2701)">
<g clip-path="url(#clip1_1_2701)">
<path d="M24 12C24 5.37258 18.6274 0 12 0C5.37258 0 0 5.37258 0 12C0 18.6274 5.37258 24 12 24C18.6274 24 24 18.6274 24 12Z" fill="#157DD1"/>
<path fill-rule="evenodd" clip-rule="evenodd" d="M20.2277 8.41333C20.2813 8.77139 20.2378 9.13725 20.1017 9.47276L18.6176 14.5183C18.4842 14.8667 18.3186 15.2018 18.123 15.5195C17.891 15.8385 17.6223 16.129 17.3224 16.3852C17.0169 16.6569 16.6569 16.8515 16.3423 17.046C16.03 17.1712 15.698 17.2403 15.3617 17.25H4.119L4.91914 14.6546H15.0561L16.6569 9.34676H6.52029L7.32086 6.7509H18.51C18.8107 6.74109 19.1086 6.8115 19.3731 6.9549C19.6438 7.06944 19.862 7.28099 19.9847 7.54804C20.1287 7.81076 20.2097 8.11205 20.2277 8.41333ZM10.5137 10.7949L9.77657 13.1962H3.75L4.55057 10.7949H10.5137Z" fill="white"/>
</g>
</g>
<defs>
<clipPath id="clip0_1_2701">
<rect width="24" height="24" fill="white"/>
</clipPath>
<clipPath id="clip1_1_2701">
<rect width="24" height="24" fill="white"/>
</clipPath>
</defs>
</svg>
