<svg width="273" height="60" viewBox="0 0 273 60" fill="none" xmlns="http://www.w3.org/2000/svg">
<mask id="mask0_1_2064" style="mask-type:luminance" maskUnits="userSpaceOnUse" x="-3" y="-2" width="279" height="64">
<path d="M275.5 -2H-2.5V62H275.5V-2Z" fill="white"/>
</mask>
<g mask="url(#mask0_1_2064)">
<path d="M0 45.34C6.825 45.34 12.675 37.08 19.5 37.08C26.325 37.08 32.175 32.95 39 32.95C45.825 32.95 51.675 37.08 58.5 37.08C65.325 37.08 71.175 32.95 78 32.95C84.825 32.95 90.675 21.15 97.5 21.15C104.325 21.15 110.175 31.77 117 31.77C123.825 31.77 129.675 26.46 136.5 26.46C143.325 26.46 149.175 37.08 156 37.08C162.825 37.08 168.675 41.21 175.5 41.21C182.325 41.21 188.175 26.46 195 26.46C201.825 26.46 207.675 27.64 214.5 27.64C221.325 27.64 227.175 27.64 234 27.64C240.825 27.64 246.675 26.46 253.5 26.46C260.325 26.46 266.175 31.77 273 31.77C273 31.77 273 31.77 273 59.5H0V45.34Z" fill="url(#paint0_linear_1_2064)"/>
</g>
<mask id="mask1_1_2064" style="mask-type:luminance" maskUnits="userSpaceOnUse" x="-3" y="-2" width="279" height="64">
<path d="M275.5 -2H-2.5V62H275.5V-2Z" fill="white"/>
</mask>
<g mask="url(#mask1_1_2064)">
<path d="M0 45.34C6.825 45.34 12.675 37.08 19.5 37.08C26.325 37.08 32.175 32.95 39 32.95C45.825 32.95 51.675 37.08 58.5 37.08C65.325 37.08 71.175 32.95 78 32.95C84.825 32.95 90.675 21.15 97.5 21.15C104.325 21.15 110.175 31.77 117 31.77C123.825 31.77 129.675 26.46 136.5 26.46C143.325 26.46 149.175 37.08 156 37.08C162.825 37.08 168.675 41.21 175.5 41.21C182.325 41.21 188.175 26.46 195 26.46C201.825 26.46 207.675 27.64 214.5 27.64C221.325 27.64 227.175 27.64 234 27.64C240.825 27.64 246.675 26.46 253.5 26.46C260.325 26.46 266.175 31.77 273 31.77" stroke="#F8921A"/>
</g>
<defs>
<linearGradient id="paint0_linear_1_2064" x1="0" y1="21.15" x2="0" y2="59.5" gradientUnits="userSpaceOnUse">
<stop stop-color="#F8921A" stop-opacity="0.4225"/>
<stop offset="1" stop-color="#FCC98D" stop-opacity="0.25"/>
</linearGradient>
</defs>
</svg>
