<svg width="44" height="44" viewBox="0 0 44 44" fill="none" xmlns="http://www.w3.org/2000/svg">
<path d="M5.5 22C5.5 24.1668 5.92678 26.3124 6.75599 28.3143C7.58519 30.3161 8.80057 32.1351 10.3327 33.6673C11.8649 35.1994 13.6839 36.4148 15.6857 37.244C17.6876 38.0732 19.8332 38.5 22 38.5C24.1668 38.5 26.3124 38.0732 28.3143 37.244C30.3161 36.4148 32.1351 35.1994 33.6673 33.6673C35.1994 32.1351 36.4148 30.3161 37.244 28.3143C38.0732 26.3124 38.5 24.1668 38.5 22C38.5 19.8332 38.0732 17.6876 37.244 15.6857C36.4148 13.6839 35.1994 11.8649 33.6673 10.3327C32.1351 8.80057 30.3161 7.58519 28.3143 6.75599C26.3124 5.92679 24.1668 5.5 22 5.5C19.8332 5.5 17.6876 5.92679 15.6857 6.75599C13.6839 7.58519 11.8649 8.80057 10.3327 10.3327C8.80057 11.8649 7.58519 13.6839 6.75599 15.6857C5.92678 17.6876 5.5 19.8332 5.5 22Z" stroke="black" stroke-width="1.83333" stroke-linecap="round" stroke-linejoin="round"/>
<path d="M27.1333 16.5C26.8012 15.9239 26.3187 15.4489 25.7374 15.126C25.1561 14.8031 24.4979 14.6443 23.8333 14.6667H20.1667C19.1942 14.6667 18.2616 15.053 17.5739 15.7406C16.8863 16.4282 16.5 17.3609 16.5 18.3333C16.5 19.3058 16.8863 20.2384 17.5739 20.926C18.2616 21.6137 19.1942 22 20.1667 22H23.8333C24.8058 22 25.7384 22.3863 26.4261 23.0739C27.1137 23.7616 27.5 24.6942 27.5 25.6667C27.5 26.6391 27.1137 27.5717 26.4261 28.2594C25.7384 28.947 24.8058 29.3333 23.8333 29.3333H20.1667C19.5021 29.3557 18.8439 29.1969 18.2626 28.874C17.6813 28.551 17.1988 28.0761 16.8667 27.5" stroke="black" stroke-width="1.83333" stroke-linecap="round" stroke-linejoin="round"/>
<path d="M22 12.8333V31.1667" stroke="black" stroke-width="1.83333" stroke-linecap="round" stroke-linejoin="round"/>
</svg>
