<svg width="44" height="44" viewBox="0 0 44 44" fill="none" xmlns="http://www.w3.org/2000/svg">
<path d="M22 34.8333H11C9.54131 34.8333 8.14236 34.2539 7.11091 33.2224C6.07946 32.191 5.5 30.792 5.5 29.3333V14.6667C5.5 13.208 6.07946 11.809 7.11091 10.7776C8.14236 9.74612 9.54131 9.16666 11 9.16666H33C34.4587 9.16666 35.8576 9.74612 36.8891 10.7776C37.9205 11.809 38.5 13.208 38.5 14.6667V22.9167" stroke="black" stroke-width="1.83333" stroke-linecap="round" stroke-linejoin="round"/>
<path d="M5.5 18.3333H38.5" stroke="black" stroke-width="1.83333" stroke-linecap="round" stroke-linejoin="round"/>
<path d="M29.3333 34.8333H40.3333" stroke="black" stroke-width="1.83333" stroke-linecap="round" stroke-linejoin="round"/>
<path d="M34.8333 29.3333L40.3333 34.8333L34.8333 40.3333" stroke="black" stroke-width="1.83333" stroke-linecap="round" stroke-linejoin="round"/>
<path d="M12.8425 27.5H12.8517" stroke="black" stroke-width="1.83333" stroke-linecap="round" stroke-linejoin="round"/>
<path d="M20.1667 27.5H23.8334" stroke="black" stroke-width="1.83333" stroke-linecap="round" stroke-linejoin="round"/>
</svg>
