<svg width="44" height="44" viewBox="0 0 44 44" fill="none" xmlns="http://www.w3.org/2000/svg">
<path d="M38.5001 27.5H33.9167C33.1871 27.5 32.4886 27.7897 31.9716 28.3048C31.4564 28.82 31.1667 29.5203 31.1667 30.25C31.1667 30.9797 31.4564 31.6782 31.9716 32.1952C32.4867 32.7103 33.1871 33 33.9167 33H35.7501C36.4797 33 37.1782 33.2897 37.6952 33.8048C38.2104 34.32 38.5001 35.0203 38.5001 35.75C38.5001 36.4797 38.2104 37.1782 37.6952 37.6952C37.1801 38.2103 36.4797 38.5 35.7501 38.5H31.1667" stroke="black" stroke-width="1.83333" stroke-linecap="round" stroke-linejoin="round"/>
<path d="M34.8333 38.5V40.3333M34.8333 25.6667V27.5" stroke="black" stroke-width="1.83333" stroke-linecap="round" stroke-linejoin="round"/>
<path d="M23.8333 38.5H10.9999C10.0283 38.5 9.09509 38.1132 8.40759 37.4257C7.72009 36.7382 7.33325 35.805 7.33325 34.8333V16.5C7.33325 15.5283 7.72009 14.5952 8.40759 13.9077C9.09509 13.2202 10.0283 12.8333 10.9999 12.8333H14.6666M36.6666 18.5533V16.5C36.6666 15.5283 36.2798 14.5952 35.5923 13.9077C34.9048 13.2202 33.9716 12.8333 32.9999 12.8333H29.3333" stroke="black" stroke-width="1.83333" stroke-linecap="round" stroke-linejoin="round"/>
<path d="M29.3333 18.3333V7.33332C29.3333 6.36166 28.9464 5.42849 28.2589 4.74099C27.5714 4.05349 26.6383 3.66666 25.6666 3.66666H18.3333C17.3616 3.66666 16.4284 4.05349 15.7409 4.74099C15.0534 5.42849 14.6666 6.36166 14.6666 7.33332V18.3333M29.3333 18.3333H14.6666M29.3333 18.3333H31.1666M14.6666 18.3333H12.8333" stroke="black" stroke-width="1.83333" stroke-linecap="round" stroke-linejoin="round"/>
<path d="M14.6667 25.6667V25.685" stroke="black" stroke-width="1.83333" stroke-linecap="round" stroke-linejoin="round"/>
<path d="M14.6667 31.1667V31.185" stroke="black" stroke-width="1.83333" stroke-linecap="round" stroke-linejoin="round"/>
<path d="M22 25.6483V25.6667" stroke="black" stroke-width="1.83333" stroke-linecap="round" stroke-linejoin="round"/>
<path d="M22 31.1667V31.185" stroke="black" stroke-width="1.83333" stroke-linecap="round" stroke-linejoin="round"/>
</svg>
