<svg width="30" height="30" viewBox="0 0 30 30" fill="none" xmlns="http://www.w3.org/2000/svg">
<path d="M5.76135 5.96777H12.4977V12.742H5.76135V5.96777Z" stroke="#212529" stroke-width="0.903226" stroke-linecap="round" stroke-linejoin="round"/>
<path d="M16.9886 5.96777H23.725V12.742H16.9886V5.96777Z" stroke="#212529" stroke-width="0.903226" stroke-linecap="round" stroke-linejoin="round"/>
<path d="M5.76135 17.2581H12.4977V24.0322H5.76135V17.2581Z" stroke="#212529" stroke-width="0.903226" stroke-linecap="round" stroke-linejoin="round"/>
<path d="M16.9886 20.6452C16.9886 21.5435 17.3434 22.405 17.9752 23.0402C18.6068 23.6754 19.4635 24.0322 20.3568 24.0322C21.2501 24.0322 22.1068 23.6754 22.7385 23.0402C23.3701 22.405 23.725 21.5435 23.725 20.6452C23.725 19.7468 23.3701 18.8853 22.7385 18.2501C22.1068 17.6149 21.2501 17.2581 20.3568 17.2581C19.4635 17.2581 18.6068 17.6149 17.9752 18.2501C17.3434 18.8853 16.9886 19.7468 16.9886 20.6452Z" stroke="#212529" stroke-width="0.903226" stroke-linecap="round" stroke-linejoin="round"/>
</svg>
