<svg width="26" height="26" viewBox="0 0 26 26" fill="none" xmlns="http://www.w3.org/2000/svg">
<path d="M21.6666 11.9167C21.4017 10.0103 20.5173 8.24389 19.1497 6.88954C17.7821 5.5352 16.0071 4.66809 14.0981 4.42177C12.1892 4.17546 10.2522 4.56361 8.58561 5.52644C6.919 6.48927 5.61516 7.97335 4.87498 9.75007M4.33331 5.41676V9.75007H8.66665" stroke="#212529" stroke-width="0.866667" stroke-linecap="round" stroke-linejoin="round"/>
<path d="M4.33331 14.0834C4.59825 15.9898 5.48265 17.7562 6.85029 19.1106C8.21792 20.4649 9.99291 21.3321 11.9018 21.5784C13.8107 21.8247 15.7477 21.4365 17.4143 20.4737C19.0809 19.5109 20.3848 18.0268 21.125 16.25M21.6666 20.5834V16.25H17.3333" stroke="#212529" stroke-width="0.866667" stroke-linecap="round" stroke-linejoin="round"/>
</svg>
