<svg width="26" height="26" viewBox="0 0 26 26" fill="none" xmlns="http://www.w3.org/2000/svg">
<path d="M3.25 10.8333C3.25 11.8292 3.44615 12.8153 3.82724 13.7354C4.20834 14.6554 4.76693 15.4914 5.47111 16.1956C6.17529 16.8997 7.01126 17.4583 7.93132 17.8394C8.85135 18.2205 9.83745 18.4167 10.8333 18.4167C11.8292 18.4167 12.8153 18.2205 13.7354 17.8394C14.6554 17.4583 15.4914 16.8997 16.1956 16.1956C16.8997 15.4914 17.4583 14.6554 17.8394 13.7354C18.2205 12.8153 18.4167 11.8292 18.4167 10.8333C18.4167 9.83745 18.2205 8.85135 17.8394 7.93132C17.4583 7.01126 16.8997 6.17529 16.1956 5.47111C15.4914 4.76693 14.6554 4.20834 13.7354 3.82724C12.8153 3.44615 11.8292 3.25 10.8333 3.25C9.83745 3.25 8.85135 3.44615 7.93132 3.82724C7.01126 4.20834 6.17529 4.76693 5.47111 5.47111C4.76693 6.17529 4.20834 7.01126 3.82724 7.93132C3.44615 8.85135 3.25 9.83745 3.25 10.8333Z" stroke="#212529" stroke-width="0.866667" stroke-linecap="round" stroke-linejoin="round"/>
<path d="M22.75 22.75L16.25 16.25" stroke="#212529" stroke-width="0.866667" stroke-linecap="round" stroke-linejoin="round"/>
</svg>
